# xmcd
#
# Track frame offsets:
#	255
#	38753
#	66960
#	119966
#	133096
#	164369
#	214551
#	244442
#	258441
#
# Disc length: 3659 seconds
#
# Revision: 0
# Processed by: cddbd v1.5.2PL0 Copyright (c) Steve Scherf et al.
# Submitted via: EasyCDDAExtractor 12.0.1.1
#
DISCID=8d0e4809
DTITLE=Various Artist - Universal Radio
DYEAR=1974
DGENRE=Progressive Rock
TTITLE0=Dragon - Universal Radio
TTITLE1=Dragon - Going Slow
TTITLE2=Dragon - Patina
TTITLE3=Dragon - Weetbix
TTITLE4=Dragon - Graves
TTITLE5=Dragon - Avalanche
TTITLE6=Dragon - Black Magic Woman (Live)
TTITLE7=Marc Hunter - X-Ray Creature
TTITLE8=Marc Hunter - Dinghy Days
EXTD=
EXTT0=
EXTT1=
EXTT2=
EXTT3=
EXTT4=
EXTT5=
EXTT6=
EXTT7=
EXTT8=
PLAYORDER=
